<svg xmlns="http://www.w3.org/2000/svg" width="512" height="512" viewBox="0 0 550.801 550.801"><g fill="#3c7ac7"><path d="M277.425 402.116c-20.208 0-31.87 19.833-31.87 44.317-.2 24.88 11.853 43.934 31.681 43.934 20.018 0 31.683-18.858 31.683-44.508-.001-23.91-11.275-43.743-31.494-43.743z"/><path d="M475.095 131.992c-.032-2.526-.833-5.021-2.568-6.993L366.324 3.694c-.021-.034-.062-.045-.084-.076-.633-.707-1.36-1.29-2.141-1.804-.232-.15-.475-.285-.718-.422a11.07 11.07 0 0 0-2.13-.892c-.19-.058-.38-.14-.58-.192A10.525 10.525 0 0 0 358.203 0H97.2C85.292 0 75.6 9.693 75.6 21.601v507.6c0 11.913 9.692 21.601 21.6 21.601h356.4c11.908 0 21.601-9.688 21.601-21.601V133.202c-.001-.406-.064-.804-.106-1.21zM147.382 513.691c-14.974 0-29.742-3.892-37.125-7.979l6.022-24.485c7.963 4.082 20.216 8.164 32.843 8.164 13.613 0 20.799-5.643 20.799-14.196 0-8.169-6.21-12.825-21.956-18.457-21.766-7.583-35.962-19.644-35.962-38.687 0-22.354 18.668-39.461 49.57-39.461 14.776 0 25.661 3.111 33.431 6.613l-6.613 23.904c-5.244-2.521-14.575-6.207-27.4-6.207-12.836 0-19.045 5.822-19.045 12.63 0 8.358 7.38 12.05 24.289 18.463 23.127 8.553 34.024 20.608 34.024 39.076-.006 21.954-16.923 40.622-52.877 40.622zm184.855 20.593c-18.657-5.442-34.204-11.074-51.701-18.468-2.911-1.16-6.022-1.745-9.134-1.936-29.542-1.936-57.14-23.715-57.14-66.482 0-39.261 24.877-68.808 63.942-68.808 40.047 0 62.006 30.322 62.006 66.087 0 29.742-13.796 50.735-31.104 58.504v.785c10.115 2.922 21.39 5.253 31.684 7.378l-8.553 22.94zm109.255-22.539h-81.833V380.737h29.742V486.86h52.091v24.885zM97.2 366.752V21.601h250.203v110.515c0 5.961 4.831 10.8 10.8 10.8H453.6l.011 223.836H97.2z"/><path d="M334.114 171.171c.475-1.308.812-2.647.812-4.063 0-17.386-37.568-26.765-72.924-26.765-35.321 0-72.879 9.379-72.879 26.765 0 1.416.33 2.761.81 4.074l-.188.335c-1.616 2.932-2.415 5.89-2.415 8.801v21.513c0 3.312 1.042 6.492 2.89 9.498l-.242.411c-1.762 3.056-2.647 6.151-2.647 9.208v21.508c0 3.208.983 6.286 2.731 9.208l-.084.134c-1.762 3.051-2.647 6.152-2.647 9.202v21.51c0 19.122 32.801 34.093 74.672 34.093 41.916 0 74.717-14.971 74.717-34.093V261c0-3.056-.886-6.162-2.669-9.208l-.073-.118c1.734-2.927 2.742-6.004 2.742-9.218v-21.508c0-3.061-.886-6.167-2.669-9.218l-.231-.396c1.846-3.011 2.9-6.186 2.9-9.508v-21.513c0-2.911-.812-5.877-2.415-8.81l-.191-.332zm-5.399 111.338c0 12.351-27.38 26.093-66.712 26.093-39.295 0-66.68-13.742-66.68-26.093v-20.231c12.263 11.232 37.492 18.396 66.68 18.396 29.228 0 54.456-7.169 66.712-18.407v20.242zm0-40.054c0 12.34-27.38 26.093-66.712 26.093-39.295 0-66.68-13.753-66.68-26.093v-20.234c12.263 11.227 37.492 18.398 66.68 18.398 29.228 0 54.456-7.172 66.712-18.409v20.245zm0-40.63c0 12.34-27.38 26.093-66.712 26.093-39.295 0-66.68-13.748-66.68-26.093v-17.9c11.984 10.156 39.772 15.422 66.68 15.422 26.944 0 54.72-5.266 66.712-15.422v17.9z"/></g></svg>